<svg xmlns="http://www.w3.org/2000/svg" xmlns:xlink="http://www.w3.org/1999/xlink" width="42" zoomAndPan="magnify" viewBox="0 0 31.5 31.499999" height="42" preserveAspectRatio="xMidYMid meet" version="1.2"><defs><clipPath id="51e3ac4895"><path d="M 0 0 L 31.007812 0 L 31.007812 31.007812 L 0 31.007812 Z M 0 0 "/></clipPath><clipPath id="b9a56145f2"><path d="M 1.972656 0 L 30.765625 0 L 30.765625 31.007812 L 1.972656 31.007812 Z M 1.972656 0 "/></clipPath><clipPath id="773b5e9dce"><path d="M 2 2 L 30.765625 2 L 30.765625 31.007812 L 2 31.007812 Z M 2 2 "/></clipPath><clipPath id="9894e9fbd1"><path d="M 1.972656 0 L 28 0 L 28 31 L 1.972656 31 Z M 1.972656 0 "/></clipPath></defs><g id="fc639679c0"><g clip-rule="nonzero" clip-path="url(#51e3ac4895)"><path style=" stroke:none;fill-rule:nonzero;fill:#ffffff;fill-opacity:1;" d="M 0 0 L 31.007812 0 L 31.007812 31.007812 L 0 31.007812 Z M 0 0 "/><path style=" stroke:none;fill-rule:nonzero;fill:#000000;fill-opacity:1;" d="M 0 0 L 31.007812 0 L 31.007812 31.007812 L 0 31.007812 Z M 0 0 "/></g><g clip-rule="nonzero" clip-path="url(#b9a56145f2)"><path style=" stroke:none;fill-rule:nonzero;fill:#f0d850;fill-opacity:1;" d="M 27.097656 16.90625 C 28.59375 15.632812 29.484375 13.625 29.484375 11.316406 C 29.484375 8.527344 28.585938 6.390625 26.804688 4.914062 L 26.808594 4.914062 L 24.25 2.734375 C 22.285156 0.917969 19.113281 0 14.746094 0 L 3.199219 0 C 2.535156 0 1.992188 0.546875 1.992188 1.222656 L 1.992188 28.816406 C 1.992188 29.160156 2.128906 29.464844 2.355469 29.6875 L 2.351562 29.6875 L 2.378906 29.710938 C 2.40625 29.738281 2.4375 29.761719 2.464844 29.785156 L 5.183594 32.105469 C 5.242188 32.171875 5.308594 32.230469 5.382812 32.277344 C 5.574219 32.410156 5.804688 32.484375 6.054688 32.484375 L 19.554688 32.484375 C 22.429688 32.484375 25.066406 31.824219 26.976562 30.621094 C 29.449219 29.070312 30.75 26.660156 30.75 23.648438 C 30.75 20.726562 29.472656 18.390625 27.097656 16.90625 Z M 15.246094 11.023438 C 15.246094 10.640625 15.554688 10.328125 15.933594 10.328125 C 16.0625 10.328125 16.191406 10.328125 16.320312 10.324219 C 16.179688 10.992188 15.777344 11.367188 15.246094 11.578125 Z M 15.246094 20.796875 C 15.246094 20.410156 15.554688 20.101562 15.933594 20.101562 L 16.226562 20.101562 C 16.609375 20.101562 17.046875 20.097656 17.488281 20.128906 C 17.398438 21.492188 16.382812 21.972656 15.246094 22.140625 Z M 15.246094 20.796875 "/></g><g clip-rule="nonzero" clip-path="url(#773b5e9dce)"><path style=" stroke:none;fill-rule:nonzero;fill:#000000;fill-opacity:1;" d="M 30.75 23.648438 C 30.75 26.660156 29.449219 29.070312 26.976562 30.621094 C 25.066406 31.824219 22.429688 32.484375 19.554688 32.484375 L 6.054688 32.484375 C 5.804688 32.484375 5.574219 32.410156 5.382812 32.277344 C 5.308594 32.230469 5.242188 32.171875 5.183594 32.105469 L 2.464844 29.785156 C 2.667969 29.945312 2.921875 30.039062 3.199219 30.039062 L 16.699219 30.039062 C 19.574219 30.039062 22.210938 29.378906 24.125 28.175781 C 26.59375 26.625 27.898438 24.214844 27.898438 21.203125 C 27.898438 18.28125 26.617188 15.945312 24.246094 14.460938 C 25.738281 13.1875 26.632812 11.179688 26.632812 8.871094 C 26.632812 6.246094 25.832031 4.195312 24.25 2.734375 L 26.808594 4.914062 L 26.804688 4.914062 C 28.585938 6.390625 29.484375 8.527344 29.484375 11.316406 C 29.484375 13.625 28.59375 15.632812 27.097656 16.90625 C 29.472656 18.390625 30.75 20.726562 30.75 23.648438 Z M 13.082031 7.882812 C 12.699219 7.882812 12.394531 8.195312 12.394531 8.578125 L 12.394531 11.136719 C 12.394531 11.523438 12.699219 11.835938 13.082031 11.835938 L 13.296875 11.835938 C 13.96875 11.835938 14.679688 11.800781 15.246094 11.578125 L 15.246094 11.023438 C 15.246094 10.640625 15.554688 10.328125 15.933594 10.328125 C 16.0625 10.328125 16.191406 10.328125 16.320312 10.324219 C 16.355469 10.164062 16.375 9.984375 16.375 9.785156 C 16.375 7.734375 14.527344 7.882812 13.082031 7.882812 Z M 15.246094 20.796875 C 15.246094 20.410156 15.554688 20.101562 15.933594 20.101562 L 16.226562 20.101562 C 16.609375 20.101562 17.046875 20.097656 17.488281 20.128906 C 17.496094 20.0625 17.496094 19.992188 17.496094 19.925781 C 17.496094 17.617188 14.960938 17.65625 13.371094 17.65625 L 13.082031 17.65625 C 12.699219 17.65625 12.394531 17.964844 12.394531 18.351562 L 12.394531 21.535156 C 12.394531 21.917969 12.699219 22.230469 13.082031 22.230469 L 13.515625 22.230469 C 14.050781 22.230469 14.664062 22.226562 15.246094 22.140625 Z M 2.351562 29.6875 L 2.378906 29.710938 C 2.371094 29.703125 2.363281 29.695312 2.355469 29.6875 Z M 2.351562 29.6875 "/></g><g clip-rule="nonzero" clip-path="url(#9894e9fbd1)"><path style=" stroke:none;fill-rule:nonzero;fill:#f0d850;fill-opacity:1;" d="M 23.550781 15.335938 C 23.53125 15.320312 23.53125 15.320312 23.550781 15.335938 Z M 3.199219 30.039062 C 2.921875 30.039062 2.667969 29.945312 2.464844 29.785156 C 2.4375 29.761719 2.40625 29.738281 2.378906 29.710938 C 2.371094 29.703125 2.363281 29.695312 2.355469 29.6875 C 2.128906 29.464844 1.992188 29.160156 1.992188 28.816406 L 1.992188 1.222656 C 1.992188 0.546875 2.535156 0 3.199219 0 L 14.746094 0 C 19.113281 0 22.285156 0.917969 24.25 2.734375 C 25.832031 4.195312 26.632812 6.246094 26.632812 8.871094 C 26.632812 11.179688 25.738281 13.1875 24.246094 14.460938 C 26.617188 15.945312 27.898438 18.28125 27.898438 21.203125 C 27.898438 24.214844 26.59375 26.625 24.125 28.175781 C 22.210938 29.378906 19.574219 30.039062 16.699219 30.039062 Z M 16.375 9.785156 C 16.375 7.734375 14.527344 7.882812 13.082031 7.882812 C 12.699219 7.882812 12.394531 8.195312 12.394531 8.578125 L 12.394531 11.136719 C 12.394531 11.523438 12.699219 11.835938 13.082031 11.835938 L 13.296875 11.835938 C 13.96875 11.835938 14.679688 11.800781 15.246094 11.578125 C 15.777344 11.367188 16.179688 10.992188 16.320312 10.324219 C 16.355469 10.164062 16.375 9.984375 16.375 9.785156 Z M 13.515625 22.230469 C 14.050781 22.230469 14.664062 22.226562 15.246094 22.140625 C 16.382812 21.972656 17.398438 21.492188 17.488281 20.128906 C 17.496094 20.0625 17.496094 19.992188 17.496094 19.925781 C 17.496094 17.617188 14.960938 17.65625 13.371094 17.65625 L 13.082031 17.65625 C 12.699219 17.65625 12.394531 17.964844 12.394531 18.351562 L 12.394531 21.535156 C 12.394531 21.917969 12.699219 22.230469 13.082031 22.230469 Z M 24.476562 10.152344 C 23.957031 10.03125 23.550781 10.3125 23.363281 10.789062 C 23.351562 10.816406 23.347656 10.832031 23.34375 10.84375 C 23.335938 10.855469 23.332031 10.867188 23.324219 10.886719 C 23.285156 10.960938 23.25 11.035156 23.210938 11.109375 C 23.140625 11.246094 23.066406 11.378906 22.984375 11.503906 C 22.9375 11.574219 22.890625 11.636719 22.84375 11.707031 C 22.839844 11.710938 22.839844 11.714844 22.835938 11.71875 C 22.832031 11.726562 22.824219 11.730469 22.8125 11.746094 C 22.707031 11.863281 22.601562 11.984375 22.484375 12.097656 C 21.976562 12.585938 21.535156 13.105469 21.394531 13.828125 C 21.253906 14.5625 21.355469 15.332031 21.742188 15.980469 C 21.90625 16.253906 22.117188 16.507812 22.363281 16.710938 C 22.53125 16.851562 22.707031 16.96875 22.890625 17.085938 C 22.96875 17.136719 23.042969 17.195312 23.121094 17.246094 C 23.148438 17.265625 23.160156 17.277344 23.171875 17.28125 C 23.175781 17.285156 23.191406 17.300781 23.226562 17.328125 C 23.597656 17.628906 24.152344 17.71875 24.507812 17.328125 C 24.808594 16.996094 24.902344 16.351562 24.507812 16.035156 C 24.21875 15.800781 23.921875 15.585938 23.613281 15.382812 C 23.589844 15.367188 23.574219 15.355469 23.5625 15.34375 C 23.515625 15.304688 23.46875 15.261719 23.429688 15.21875 C 23.417969 15.207031 23.382812 15.160156 23.355469 15.132812 C 23.335938 15.101562 23.3125 15.0625 23.304688 15.054688 C 23.273438 15.003906 23.25 14.945312 23.21875 14.894531 C 23.21875 14.894531 23.21875 14.894531 23.21875 14.890625 C 23.214844 14.886719 23.214844 14.882812 23.214844 14.875 C 23.191406 14.804688 23.171875 14.734375 23.152344 14.664062 C 23.148438 14.648438 23.148438 14.644531 23.144531 14.636719 C 23.144531 14.574219 23.136719 14.515625 23.136719 14.453125 C 23.136719 14.445312 23.136719 14.410156 23.140625 14.375 C 23.144531 14.34375 23.15625 14.257812 23.160156 14.242188 C 23.175781 14.167969 23.199219 14.09375 23.222656 14.023438 C 23.222656 14.015625 23.226562 14.011719 23.226562 14.007812 C 23.230469 14.003906 23.230469 14.003906 23.234375 13.996094 C 23.269531 13.945312 23.300781 13.882812 23.328125 13.832031 C 23.335938 13.816406 23.339844 13.808594 23.347656 13.796875 C 23.390625 13.75 23.429688 13.703125 23.472656 13.65625 C 23.671875 13.460938 23.886719 13.285156 24.066406 13.070312 C 24.527344 12.527344 24.851562 11.9375 25.109375 11.277344 C 25.285156 10.832031 24.917969 10.253906 24.476562 10.152344 Z M 25.523438 8.625 C 25.5 8.128906 25.125 7.710938 24.617188 7.710938 C 24.140625 7.710938 23.6875 8.128906 23.710938 8.625 C 23.734375 9.121094 24.109375 9.542969 24.617188 9.542969 C 25.089844 9.542969 25.542969 9.121094 25.523438 8.625 Z M 25.523438 8.625 "/></g><path style=" stroke:none;fill-rule:nonzero;fill:#ecedea;fill-opacity:1;" d="M 24.476562 10.152344 C 23.957031 10.03125 23.550781 10.3125 23.363281 10.789062 C 23.351562 10.816406 23.347656 10.832031 23.34375 10.84375 C 23.335938 10.855469 23.332031 10.867188 23.324219 10.886719 C 23.285156 10.960938 23.25 11.035156 23.210938 11.109375 C 23.140625 11.246094 23.066406 11.378906 22.984375 11.503906 C 22.9375 11.574219 22.890625 11.636719 22.84375 11.707031 C 22.839844 11.710938 22.839844 11.714844 22.835938 11.71875 C 22.832031 11.726562 22.824219 11.730469 22.8125 11.746094 C 22.707031 11.863281 22.601562 11.984375 22.484375 12.097656 C 21.976562 12.585938 21.535156 13.105469 21.394531 13.828125 C 21.253906 14.5625 21.355469 15.332031 21.742188 15.980469 C 21.90625 16.253906 22.117188 16.507812 22.363281 16.710938 C 22.53125 16.851562 22.707031 16.96875 22.890625 17.085938 C 22.96875 17.136719 23.042969 17.195312 23.121094 17.246094 C 23.148438 17.265625 23.160156 17.277344 23.171875 17.28125 C 23.175781 17.285156 23.191406 17.300781 23.226562 17.328125 C 23.597656 17.628906 24.152344 17.71875 24.507812 17.328125 C 24.808594 16.996094 24.902344 16.351562 24.507812 16.035156 C 24.21875 15.800781 23.921875 15.585938 23.613281 15.382812 C 23.589844 15.367188 23.574219 15.355469 23.5625 15.34375 C 23.515625 15.304688 23.46875 15.261719 23.429688 15.21875 C 23.417969 15.207031 23.382812 15.160156 23.355469 15.132812 C 23.335938 15.101562 23.3125 15.0625 23.304688 15.054688 C 23.273438 15.003906 23.25 14.945312 23.21875 14.894531 C 23.21875 14.894531 23.21875 14.894531 23.21875 14.890625 C 23.214844 14.886719 23.214844 14.882812 23.214844 14.875 C 23.191406 14.804688 23.171875 14.734375 23.152344 14.664062 C 23.148438 14.648438 23.148438 14.644531 23.144531 14.636719 C 23.144531 14.574219 23.136719 14.515625 23.136719 14.453125 C 23.136719 14.445312 23.136719 14.410156 23.140625 14.375 C 23.144531 14.34375 23.15625 14.257812 23.160156 14.242188 C 23.175781 14.167969 23.199219 14.09375 23.222656 14.023438 C 23.222656 14.015625 23.226562 14.011719 23.226562 14.007812 C 23.230469 14.003906 23.230469 14.003906 23.234375 13.996094 C 23.269531 13.945312 23.300781 13.882812 23.328125 13.832031 C 23.335938 13.816406 23.339844 13.808594 23.347656 13.796875 C 23.390625 13.75 23.429688 13.703125 23.472656 13.65625 C 23.671875 13.460938 23.886719 13.285156 24.066406 13.070312 C 24.527344 12.527344 24.851562 11.9375 25.109375 11.277344 C 25.285156 10.832031 24.917969 10.253906 24.476562 10.152344 Z M 23.550781 15.335938 C 23.53125 15.320312 23.53125 15.320312 23.550781 15.335938 Z M 25.523438 8.625 C 25.542969 9.121094 25.089844 9.542969 24.617188 9.542969 C 24.109375 9.542969 23.730469 9.121094 23.710938 8.625 C 23.6875 8.128906 24.140625 7.710938 24.617188 7.710938 C 25.125 7.710938 25.5 8.128906 25.523438 8.625 Z M 25.523438 8.625 "/></g></svg>