<svg xmlns="http://www.w3.org/2000/svg" xmlns:xlink="http://www.w3.org/1999/xlink" width="500" zoomAndPan="magnify" viewBox="0 0 375 374.999991" height="500" preserveAspectRatio="xMidYMid meet" version="1.2"><defs><clipPath id="b856d53500"><rect x="0" width="371" y="0" height="118"/></clipPath></defs><g id="23d6850194"><rect x="0" width="375" y="0" height="374.999991" style="fill:#ffffff;fill-opacity:1;stroke:none;"/><rect x="0" width="375" y="0" height="374.999991" style="fill:#000000;fill-opacity:1;stroke:none;"/><g transform="matrix(1,0,0,1,3,104)"><g clip-path="url(#b856d53500)"><g style="fill:#f7cb1d;fill-opacity:1;"><g transform="translate(0.522142, 87.090457)"><path style="stroke:none" d="M 50.640625 -40.953125 C 53.398438 -40.242188 55.800781 -39.0625 57.84375 -37.40625 C 59.882812 -35.75 61.472656 -33.710938 62.609375 -31.296875 C 63.742188 -28.878906 64.3125 -26.148438 64.3125 -23.109375 C 64.3125 -19.671875 63.660156 -16.539062 62.359375 -13.71875 C 61.066406 -10.894531 59.203125 -8.460938 56.765625 -6.421875 C 54.335938 -4.378906 51.421875 -2.796875 48.015625 -1.671875 C 44.609375 -0.554688 40.796875 0 36.578125 0 L 3.75 0 L 3.75 -74.28125 L 32.0625 -74.28125 C 36.300781 -74.28125 40.109375 -73.785156 43.484375 -72.796875 C 46.859375 -71.804688 49.742188 -70.398438 52.140625 -68.578125 C 54.546875 -66.765625 56.378906 -64.601562 57.640625 -62.09375 C 58.910156 -59.582031 59.546875 -56.816406 59.546875 -53.796875 C 59.546875 -51.691406 59.144531 -49.796875 58.34375 -48.109375 C 57.550781 -46.421875 56.484375 -44.976562 55.140625 -43.78125 C 53.796875 -42.582031 52.296875 -41.640625 50.640625 -40.953125 Z M 27.046875 -55.0625 L 27.046875 -45.28125 L 31.71875 -45.28125 C 33.4375 -45.28125 34.707031 -45.789062 35.53125 -46.8125 C 36.363281 -47.84375 36.78125 -48.988281 36.78125 -50.25 C 36.78125 -51.550781 36.316406 -52.675781 35.390625 -53.625 C 34.460938 -54.582031 32.816406 -55.0625 30.453125 -55.0625 Z M 33.859375 -19.5625 C 36.066406 -19.5625 37.6875 -20.101562 38.71875 -21.1875 C 39.757812 -22.269531 40.28125 -23.570312 40.28125 -25.09375 C 40.28125 -26.519531 39.789062 -27.734375 38.8125 -28.734375 C 37.84375 -29.742188 36.453125 -30.25 34.640625 -30.25 L 27.046875 -30.25 L 27.046875 -19.5625 Z M 33.859375 -19.5625 "/></g></g><g style="fill:#f7cb1d;fill-opacity:1;"><g transform="translate(65.799081, 87.090457)"><path style="stroke:none" d="M 89.9375 -74.28125 L 98.0625 0 L 73.9375 0 L 70.828125 -33.265625 L 70.140625 -33.265625 L 57.6875 0 L 42.765625 0 L 29.234375 -33.265625 L 28.546875 -33.265625 L 25.96875 0 L 1.890625 0 L 9.921875 -74.28125 L 34.203125 -74.28125 L 49.671875 -31.71875 L 50.203125 -31.71875 L 65.671875 -74.28125 Z M 89.9375 -74.28125 "/></g></g><g style="fill:#ffffff;fill-opacity:1;"><g transform="translate(163.716649, 87.090457)"><path style="stroke:none" d="M 40.46875 1.953125 C 36.15625 1.953125 32.035156 1.3125 28.109375 0.03125 C 24.191406 -1.25 20.601562 -3.066406 17.34375 -5.421875 C 14.082031 -7.773438 11.257812 -10.570312 8.875 -13.8125 C 6.488281 -17.0625 4.640625 -20.660156 3.328125 -24.609375 C 2.015625 -28.566406 1.359375 -32.785156 1.359375 -37.265625 C 1.359375 -41.703125 2.019531 -45.890625 3.34375 -49.828125 C 4.675781 -53.773438 6.550781 -57.367188 8.96875 -60.609375 C 11.382812 -63.847656 14.265625 -66.632812 17.609375 -68.96875 C 20.953125 -71.3125 24.640625 -73.113281 28.671875 -74.375 C 32.710938 -75.644531 36.988281 -76.28125 41.5 -76.28125 C 44.476562 -76.28125 47.289062 -75.9375 49.9375 -75.25 C 52.582031 -74.570312 55.085938 -73.664062 57.453125 -72.53125 L 57.5 -49.515625 C 56.363281 -50.328125 55.023438 -51.113281 53.484375 -51.875 C 51.941406 -52.632812 50.210938 -53.257812 48.296875 -53.75 C 46.390625 -54.238281 44.300781 -54.484375 42.03125 -54.484375 C 39.625 -54.484375 37.398438 -54.050781 35.359375 -53.1875 C 33.316406 -52.332031 31.535156 -51.125 30.015625 -49.5625 C 28.492188 -48.007812 27.3125 -46.175781 26.46875 -44.0625 C 25.625 -41.957031 25.203125 -39.675781 25.203125 -37.21875 C 25.203125 -34.71875 25.625 -32.40625 26.46875 -30.28125 C 27.3125 -28.15625 28.492188 -26.3125 30.015625 -24.75 C 31.535156 -23.195312 33.328125 -21.988281 35.390625 -21.125 C 37.453125 -20.269531 39.695312 -19.84375 42.125 -19.84375 C 44.394531 -19.84375 46.566406 -20.132812 48.640625 -20.71875 C 50.722656 -21.300781 52.644531 -22.085938 54.40625 -23.078125 C 56.175781 -24.066406 57.691406 -25.195312 58.953125 -26.46875 L 58.421875 -2.28125 C 55.765625 -0.988281 52.972656 0.0351562 50.046875 0.796875 C 47.128906 1.566406 43.9375 1.953125 40.46875 1.953125 Z M 40.46875 1.953125 "/></g></g><g style="fill:#ffffff;fill-opacity:1;"><g transform="translate(223.983518, 87.090457)"><path style="stroke:none" d="M 52.4375 0 L 49.328125 -11.53125 L 28.359375 -11.53125 L 25.25 0 L 0.25 0 L 25.53125 -74.28125 L 53.21875 -74.28125 L 78.515625 0 Z M 33.65625 -31.078125 L 44.03125 -31.078125 L 39.15625 -48.9375 L 38.53125 -48.9375 Z M 33.65625 -31.078125 "/></g></g><g style="fill:#ffffff;fill-opacity:1;"><g transform="translate(302.73417, 87.090457)"><path style="stroke:none" d="M 66.15625 0 L 40.71875 0 L 28.3125 -23.9375 L 27.625 -23.9375 L 27.625 0 L 3.75 0 L 3.75 -74.28125 L 33.375 -74.28125 C 37.582031 -74.28125 41.40625 -73.644531 44.84375 -72.375 C 48.28125 -71.113281 51.238281 -69.304688 53.71875 -66.953125 C 56.207031 -64.609375 58.125 -61.804688 59.46875 -58.546875 C 60.8125 -55.285156 61.484375 -51.660156 61.484375 -47.671875 C 61.484375 -42.929688 60.5 -38.882812 58.53125 -35.53125 C 56.570312 -32.175781 53.84375 -29.539062 50.34375 -27.625 Z M 27.625 -54.09375 L 27.625 -42.515625 L 32.640625 -42.515625 C 34.453125 -42.515625 35.925781 -43.03125 37.0625 -44.0625 C 38.195312 -45.101562 38.765625 -46.515625 38.765625 -48.296875 C 38.765625 -50.117188 38.203125 -51.539062 37.078125 -52.5625 C 35.960938 -53.582031 34.515625 -54.09375 32.734375 -54.09375 Z M 27.625 -54.09375 "/></g></g></g></g></g></svg>