<svg xmlns="http://www.w3.org/2000/svg" xmlns:xlink="http://www.w3.org/1999/xlink" width="1128" zoomAndPan="magnify" viewBox="0 0 846 143.249994" height="191" preserveAspectRatio="xMidYMid meet" version="1.2"><defs><clipPath id="d7667a1576"><path d="M 2.203125 0 L 843.796875 0 L 843.796875 142.503906 L 2.203125 142.503906 Z M 2.203125 0 "/></clipPath><clipPath id="d0e92c0c7e"><rect x="0" width="395" y="0" height="125"/></clipPath></defs><g id="a8deb3ee29"><g clip-rule="nonzero" clip-path="url(#d7667a1576)"><path style=" stroke:none;fill-rule:nonzero;fill:#ffffff;fill-opacity:1;" d="M 2.203125 0 L 843.796875 0 L 843.796875 142.503906 L 2.203125 142.503906 Z M 2.203125 0 "/><path style=" stroke:none;fill-rule:nonzero;fill:#000000;fill-opacity:1;" d="M 2.203125 0 L 843.796875 0 L 843.796875 142.503906 L 2.203125 142.503906 Z M 2.203125 0 "/></g><g transform="matrix(1,0,0,1,192,8)"><g clip-path="url(#d0e92c0c7e)"><g style="fill:#f7cb1d;fill-opacity:1;"><g transform="translate(0.872359, 92.802531)"><path style="stroke:none" d="M 53.921875 -43.609375 C 56.859375 -42.847656 59.410156 -41.585938 61.578125 -39.828125 C 63.753906 -38.066406 65.445312 -35.898438 66.65625 -33.328125 C 67.863281 -30.753906 68.46875 -27.847656 68.46875 -24.609375 C 68.46875 -20.941406 67.773438 -17.601562 66.390625 -14.59375 C 65.015625 -11.59375 63.03125 -9.003906 60.4375 -6.828125 C 57.851562 -4.660156 54.75 -2.976562 51.125 -1.78125 C 47.5 -0.59375 43.441406 0 38.953125 0 L 3.984375 0 L 3.984375 -79.09375 L 34.140625 -79.09375 C 38.660156 -79.09375 42.710938 -78.566406 46.296875 -77.515625 C 49.890625 -76.460938 52.960938 -74.96875 55.515625 -73.03125 C 58.078125 -71.09375 60.03125 -68.785156 61.375 -66.109375 C 62.71875 -63.441406 63.390625 -60.5 63.390625 -57.28125 C 63.390625 -55.039062 62.96875 -53.019531 62.125 -51.21875 C 61.28125 -49.425781 60.140625 -47.890625 58.703125 -46.609375 C 57.273438 -45.335938 55.679688 -44.335938 53.921875 -43.609375 Z M 28.796875 -58.640625 L 28.796875 -48.21875 L 33.765625 -48.21875 C 35.597656 -48.21875 36.953125 -48.757812 37.828125 -49.84375 C 38.710938 -50.9375 39.15625 -52.15625 39.15625 -53.5 C 39.15625 -54.882812 38.660156 -56.085938 37.671875 -57.109375 C 36.691406 -58.128906 34.941406 -58.640625 32.421875 -58.640625 Z M 36.046875 -20.828125 C 38.398438 -20.828125 40.128906 -21.40625 41.234375 -22.5625 C 42.335938 -23.71875 42.890625 -25.109375 42.890625 -26.734375 C 42.890625 -28.242188 42.367188 -29.535156 41.328125 -30.609375 C 40.296875 -31.679688 38.8125 -32.21875 36.875 -32.21875 L 28.796875 -32.21875 L 28.796875 -20.828125 Z M 36.046875 -20.828125 "/></g></g><g style="fill:#f7cb1d;fill-opacity:1;"><g transform="translate(70.379239, 92.802531)"><path style="stroke:none" d="M 95.765625 -79.09375 L 104.421875 0 L 78.734375 0 L 75.421875 -35.421875 L 74.6875 -35.421875 L 61.4375 0 L 45.53125 0 L 31.125 -35.421875 L 30.40625 -35.421875 L 27.65625 0 L 2.015625 0 L 10.5625 -79.09375 L 36.40625 -79.09375 L 52.890625 -33.765625 L 53.453125 -33.765625 L 69.921875 -79.09375 Z M 95.765625 -79.09375 "/></g></g><g style="fill:#ffffff;fill-opacity:1;"><g transform="translate(174.641853, 92.802531)"><path style="stroke:none" d="M 43.09375 2.078125 C 38.5 2.078125 34.113281 1.394531 29.9375 0.03125 C 25.757812 -1.332031 21.9375 -3.265625 18.46875 -5.765625 C 15 -8.273438 11.992188 -11.253906 9.453125 -14.703125 C 6.910156 -18.160156 4.941406 -21.992188 3.546875 -26.203125 C 2.148438 -30.421875 1.453125 -34.910156 1.453125 -39.671875 C 1.453125 -44.398438 2.160156 -48.863281 3.578125 -53.0625 C 4.992188 -57.257812 6.988281 -61.082031 9.5625 -64.53125 C 12.132812 -67.988281 15.195312 -70.957031 18.75 -73.4375 C 22.300781 -75.925781 26.226562 -77.84375 30.53125 -79.1875 C 34.832031 -80.539062 39.382812 -81.21875 44.1875 -81.21875 C 47.363281 -81.21875 50.359375 -80.851562 53.171875 -80.125 C 55.984375 -79.40625 58.648438 -78.441406 61.171875 -77.234375 L 61.21875 -52.734375 C 60.007812 -53.585938 58.582031 -54.421875 56.9375 -55.234375 C 55.300781 -56.046875 53.460938 -56.710938 51.421875 -57.234375 C 49.390625 -57.753906 47.164062 -58.015625 44.75 -58.015625 C 42.195312 -58.015625 39.832031 -57.554688 37.65625 -56.640625 C 35.476562 -55.722656 33.578125 -54.4375 31.953125 -52.78125 C 30.335938 -51.125 29.078125 -49.171875 28.171875 -46.921875 C 27.273438 -44.679688 26.828125 -42.25 26.828125 -39.625 C 26.828125 -36.96875 27.273438 -34.503906 28.171875 -32.234375 C 29.078125 -29.972656 30.335938 -28.015625 31.953125 -26.359375 C 33.578125 -24.703125 35.484375 -23.414062 37.671875 -22.5 C 39.867188 -21.582031 42.265625 -21.125 44.859375 -21.125 C 47.273438 -21.125 49.585938 -21.4375 51.796875 -22.0625 C 54.003906 -22.6875 56.046875 -23.523438 57.921875 -24.578125 C 59.804688 -25.628906 61.425781 -26.828125 62.78125 -28.171875 L 62.203125 -2.4375 C 59.367188 -1.050781 56.398438 0.046875 53.296875 0.859375 C 50.191406 1.671875 46.789062 2.078125 43.09375 2.078125 Z M 43.09375 2.078125 "/></g></g><g style="fill:#ffffff;fill-opacity:1;"><g transform="translate(238.814011, 92.802531)"><path style="stroke:none" d="M 55.84375 0 L 52.515625 -12.28125 L 30.203125 -12.28125 L 26.875 0 L 0.265625 0 L 27.1875 -79.09375 L 56.671875 -79.09375 L 83.59375 0 Z M 35.84375 -33.09375 L 46.875 -33.09375 L 41.703125 -52.109375 L 41.015625 -52.109375 Z M 35.84375 -33.09375 "/></g></g><g style="fill:#ffffff;fill-opacity:1;"><g transform="translate(322.6677, 92.802531)"><path style="stroke:none" d="M 70.4375 0 L 43.359375 0 L 30.140625 -25.484375 L 29.421875 -25.484375 L 29.421875 0 L 3.984375 0 L 3.984375 -79.09375 L 35.53125 -79.09375 C 40.019531 -79.09375 44.09375 -78.414062 47.75 -77.0625 C 51.414062 -75.71875 54.566406 -73.796875 57.203125 -71.296875 C 59.847656 -68.796875 61.882812 -65.804688 63.3125 -62.328125 C 64.75 -58.859375 65.46875 -55.003906 65.46875 -50.765625 C 65.46875 -45.722656 64.421875 -41.410156 62.328125 -37.828125 C 60.242188 -34.253906 57.335938 -31.453125 53.609375 -29.421875 Z M 29.421875 -57.59375 L 29.421875 -45.265625 L 34.75 -45.265625 C 36.6875 -45.265625 38.257812 -45.816406 39.46875 -46.921875 C 40.675781 -48.023438 41.28125 -49.53125 41.28125 -51.4375 C 41.28125 -53.363281 40.679688 -54.867188 39.484375 -55.953125 C 38.296875 -57.046875 36.753906 -57.59375 34.859375 -57.59375 Z M 29.421875 -57.59375 "/></g></g></g></g></g></svg>