<svg xmlns="http://www.w3.org/2000/svg" xmlns:xlink="http://www.w3.org/1999/xlink" width="500" zoomAndPan="magnify" viewBox="0 0 375 374.999991" height="500" preserveAspectRatio="xMidYMid meet" version="1.2"><defs><clipPath id="4ed95d4fc9"><path d="M 2.515625 159 L 26 159 L 26 203 L 2.515625 203 Z M 2.515625 159 "/></clipPath><clipPath id="45f48544ff"><path d="M 268 163 L 325 163 L 325 217.738281 L 268 217.738281 Z M 268 163 "/></clipPath><clipPath id="b577672053"><path d="M 26 8.488281 L 344 8.488281 L 344 149 L 26 149 Z M 26 8.488281 "/></clipPath></defs><g id="dc34c3f8ff"><path style=" stroke:none;fill-rule:nonzero;fill:#ffb000;fill-opacity:1;" d="M 121.675781 123.191406 L 103.914062 127.066406 L 89.835938 130.089844 L 79.160156 131.414062 L 53.175781 134.625 L 84.261719 129.050781 Z M 121.675781 123.191406 "/><path style=" stroke:none;fill-rule:nonzero;fill:#f5c612;fill-opacity:1;" d="M 103.914062 127.066406 L 89.835938 130.089844 L 79.160156 131.414062 L 97.394531 127.726562 Z M 103.914062 127.066406 "/><path style=" stroke:none;fill-rule:nonzero;fill:#f5c612;fill-opacity:1;" d="M 91.0625 191.222656 L 107.597656 188.292969 L 136.699219 183.757812 L 144.257812 183.757812 L 128.292969 188.765625 L 121.109375 193.015625 L 148.320312 199.820312 L 172.132812 200.765625 L 253.484375 202.84375 L 263.121094 203.410156 L 263.121094 205.488281 L 144.921875 206.246094 C 144.921875 206.246094 121.675781 206.90625 120.828125 206.433594 L 105.238281 198.402344 L 91.0625 194.625 Z M 91.0625 191.222656 "/><path style=" stroke:none;fill-rule:nonzero;fill:#f5c612;fill-opacity:1;" d="M 371.210938 198.589844 C 368.410156 198.132812 365.671875 197.441406 362.992188 196.511719 C 361.011719 195.789062 359.09375 194.941406 357.226562 193.960938 C 359.835938 190.472656 361.410156 186.570312 361.953125 182.246094 C 362.027344 181.648438 362.058594 181.050781 362.046875 180.449219 L 344.28125 177.050781 L 335.96875 175.441406 L 329.070312 174.121094 C 329.878906 179.753906 329.910156 185.390625 329.164062 191.03125 C 328.449219 196.390625 327.03125 201.554688 324.914062 206.527344 L 345.890625 206.527344 C 349.195312 206.621094 370.265625 207.378906 371.777344 201.519531 C 372.007812 200.464844 371.820312 199.488281 371.210938 198.589844 Z M 327.652344 204.640625 C 330.601562 198.714844 332.175781 192.449219 332.378906 185.835938 C 332.445312 182.921875 332.257812 180.023438 331.8125 177.144531 L 356.472656 181.207031 C 355.105469 185.105469 353.089844 188.632812 350.425781 191.789062 C 342.582031 201.144531 331.621094 203.882812 327.652344 204.640625 Z M 363.085938 203.695312 C 357.699219 205.300781 353.449219 204.828125 349.007812 204.734375 C 343.929688 204.515625 338.859375 204.613281 333.796875 205.015625 C 340.882812 203.976562 348.441406 203.128906 356.472656 202.558594 L 367.335938 201.992188 C 365.964844 202.667969 364.546875 203.234375 363.085938 203.695312 Z M 363.085938 203.695312 "/><g clip-rule="nonzero" clip-path="url(#4ed95d4fc9)"><path style=" stroke:none;fill-rule:nonzero;fill:#f5c612;fill-opacity:1;" d="M 6.3125 159.191406 C 6.027344 159.191406 5.179688 160.609375 2.910156 168.546875 C 2.882812 172.941406 3.375 177.28125 4.382812 181.558594 C 5.386719 185.839844 6.882812 189.941406 8.863281 193.867188 L 12.640625 201.519531 L 25.964844 202.84375 C 23.542969 200.050781 21.746094 196.902344 20.578125 193.394531 C 19.65625 190.539062 19.246094 187.609375 19.351562 184.609375 C 16.390625 184.023438 13.808594 182.699219 11.601562 180.640625 C 7.351562 176.578125 6.785156 171.003906 6.40625 167.695312 C 5.933594 162.78125 6.785156 159.285156 6.3125 159.191406 Z M 6.3125 159.191406 "/></g><path style=" stroke:none;fill-rule:nonzero;fill:#f5c612;fill-opacity:1;" d="M 343.90625 162.972656 C 341.070312 161.023438 338.140625 159.226562 335.117188 157.585938 L 330.867188 155.414062 C 314.710938 147.851562 307.8125 148.703125 279.84375 142.089844 C 261.609375 137.742188 263.214844 135.285156 242.335938 128.769531 C 227.660156 124.0625 212.667969 120.816406 197.359375 119.035156 C 175.15625 116.484375 158.714844 118.375 138.683594 120.167969 C 123.378906 121.492188 106.464844 124.609375 79.539062 128.105469 L 35.320312 136.230469 L 26.34375 137.839844 L 21.617188 138.6875 L 26.152344 138.5 L 34.75 138.121094 L 81.710938 136.230469 L 99.378906 141.996094 L 134.527344 150.78125 L 146.433594 145.773438 L 191.3125 148.988281 L 200.761719 151.539062 L 163.722656 150.214844 L 147.945312 149.460938 L 142.371094 152.105469 L 214.460938 164.765625 L 263.308594 172.417969 C 264.910156 169.191406 266.957031 166.277344 269.457031 163.679688 C 271.957031 161.085938 274.789062 158.925781 277.953125 157.207031 C 294.585938 148.324219 311.78125 156.828125 313.199219 157.585938 C 316.414062 159.261719 319.328125 161.351562 321.949219 163.859375 C 324.566406 166.363281 326.785156 169.1875 328.597656 172.324219 L 335.96875 173.554688 L 344.28125 174.96875 L 361.101562 177.898438 C 355.929688 172.277344 350.199219 167.300781 343.90625 162.972656 Z M 76.796875 134.71875 L 56.859375 135.949219 L 79.160156 131.414062 L 89.835938 130.089844 L 103.914062 127.066406 L 116.667969 125.554688 L 92.480469 132.261719 Z M 256.695312 150.40625 L 249.703125 151.160156 L 203.972656 147.097656 L 144.257812 143.128906 L 104.953125 141.144531 L 94.277344 137.933594 L 95.316406 135.664062 L 116.667969 128.769531 L 133.488281 124.421875 L 176.761719 121.207031 L 218.714844 125.839844 L 244.980469 132.832031 L 277.765625 144.167969 Z M 344.28125 173.457031 L 335.96875 171.664062 L 330.488281 170.53125 C 328.511719 167.117188 326.085938 164.0625 323.214844 161.363281 C 319.078125 157.382812 314.324219 154.390625 308.945312 152.390625 C 312.476562 152.386719 315.972656 152.734375 319.433594 153.429688 C 325.035156 154.585938 330.324219 156.570312 335.308594 159.378906 C 336.257812 159.855469 337.171875 160.390625 338.046875 160.988281 C 339.84375 162.027344 341.828125 163.253906 344.09375 164.859375 C 348.601562 168.121094 352.695312 171.835938 356.378906 176.011719 Z M 344.28125 173.457031 "/><path style=" stroke:none;fill-rule:nonzero;fill:#f5c612;fill-opacity:1;" d="M 32.957031 136.042969 L 26.53125 136.796875 L 17.839844 138.027344 L 15.476562 139.351562 L 5.839844 133.679688 L 26.910156 135.476562 Z M 32.957031 136.042969 "/><path style=" stroke:none;fill-rule:nonzero;fill:#ffffff;fill-opacity:1;" d="M 81.332031 176.859375 C 80.691406 175.738281 79.980469 174.664062 79.199219 173.636719 C 78.417969 172.609375 77.570312 171.640625 76.65625 170.726562 C 75.746094 169.8125 74.777344 168.960938 73.75 168.179688 C 72.722656 167.394531 71.652344 166.679688 70.53125 166.039062 C 69.410156 165.398438 68.25 164.835938 67.054688 164.347656 C 65.859375 163.863281 64.636719 163.457031 63.386719 163.132812 C 62.136719 162.8125 60.867188 162.574219 59.585938 162.417969 C 58.304688 162.265625 57.019531 162.199219 55.726562 162.214844 C 39.855469 162.308594 27.003906 174.96875 27.097656 190.371094 C 27.121094 194.054688 27.875 197.582031 29.367188 200.953125 C 27.050781 196.882812 25.886719 192.503906 25.871094 187.820312 C 25.777344 172.417969 38.625 159.851562 54.5 159.757812 C 55.90625 159.726562 57.308594 159.800781 58.707031 159.976562 C 60.105469 160.152344 61.480469 160.429688 62.835938 160.808594 C 64.191406 161.191406 65.515625 161.667969 66.800781 162.242188 C 68.085938 162.816406 69.324219 163.480469 70.511719 164.238281 C 71.699219 164.996094 72.824219 165.835938 73.886719 166.757812 C 74.949219 167.679688 75.941406 168.675781 76.859375 169.746094 C 77.773438 170.816406 78.609375 171.945312 79.359375 173.136719 C 80.109375 174.332031 80.765625 175.570312 81.332031 176.859375 Z M 81.332031 176.859375 "/><path style=" stroke:none;fill-rule:nonzero;fill:#ffffff;fill-opacity:1;" d="M 83.601562 187.441406 C 83.585938 183.757812 82.832031 180.226562 81.332031 176.859375 C 80.726562 175.730469 80.035156 174.660156 79.253906 173.648438 L 78.59375 172.796875 C 78.496094 172.609375 78.308594 172.515625 78.214844 172.417969 C 78.121094 172.324219 78.121094 172.230469 78.027344 172.136719 L 77.457031 171.570312 L 76.890625 170.90625 L 76.136719 170.246094 C 75.964844 169.976562 75.742188 169.757812 75.472656 169.585938 L 74.8125 168.921875 L 73.300781 167.789062 L 72.734375 167.410156 L 72.167969 167.035156 L 71.316406 166.464844 L 71.222656 166.464844 L 70.75 166.277344 C 70.5625 166.089844 70.371094 166.089844 70.183594 165.996094 L 69.710938 165.710938 C 69.617188 165.585938 69.492188 165.523438 69.332031 165.523438 L 69.144531 165.523438 L 68.386719 165.144531 L 67.820312 164.859375 L 67.726562 164.859375 C 67.632812 164.734375 67.507812 164.671875 67.347656 164.671875 L 66.6875 164.386719 L 65.648438 164.011719 L 64.796875 163.726562 L 63.851562 163.441406 L 63.285156 163.441406 L 61.964844 163.066406 L 61.019531 162.875 L 52.136719 162.875 L 49.113281 163.347656 L 48.261719 163.632812 L 47.316406 163.820312 L 46.46875 164.105469 L 45.523438 164.484375 L 45.429688 164.484375 L 44.765625 164.765625 L 44.578125 164.765625 L 43.917969 165.050781 L 43.160156 165.425781 L 42.59375 165.710938 L 42.121094 165.898438 L 41.460938 166.277344 L 40.324219 166.9375 L 39.476562 167.507812 L 38.625 168.167969 C 37.5 168.914062 36.460938 169.765625 35.507812 170.71875 L 34.941406 171.285156 C 34.542969 171.652344 34.195312 172.0625 33.902344 172.515625 C 33.710938 172.703125 33.523438 172.796875 33.429688 172.984375 L 32.765625 173.835938 C 32.492188 174.167969 32.242188 174.511719 32.011719 174.875 L 31.445312 175.726562 L 31.066406 176.386719 L 30.59375 177.050781 C 30.507812 177.320312 30.378906 177.570312 30.214844 177.804688 C 30.09375 178.109375 29.9375 178.390625 29.742188 178.65625 C 29.632812 178.976562 29.507812 179.292969 29.367188 179.601562 L 29.082031 180.261719 C 28.976562 180.4375 28.914062 180.625 28.894531 180.828125 C 28.894531 180.921875 28.894531 180.921875 28.800781 180.921875 L 28.515625 181.867188 C 28.332031 182.292969 28.207031 182.734375 28.136719 183.191406 C 28.03125 183.398438 27.96875 183.621094 27.949219 183.851562 L 27.757812 184.324219 C 27.761719 184.457031 27.730469 184.585938 27.664062 184.703125 C 27.664062 184.890625 27.570312 185.082031 27.570312 185.363281 C 27.570312 185.648438 27.476562 185.835938 27.382812 186.121094 C 27.398438 186.410156 27.363281 186.691406 27.289062 186.96875 C 27.300781 187.226562 27.269531 187.480469 27.191406 187.726562 L 27.191406 188.578125 C 27.113281 188.855469 27.082031 189.136719 27.097656 189.425781 L 27.097656 190.464844 C 27.113281 194.152344 27.867188 197.679688 29.367188 201.046875 C 30.003906 202.171875 30.714844 203.246094 31.5 204.273438 C 32.28125 205.296875 33.128906 206.269531 34.042969 207.183594 C 34.953125 208.097656 35.921875 208.945312 36.949219 209.730469 C 37.972656 210.515625 39.046875 211.226562 40.167969 211.867188 C 41.289062 212.507812 42.449219 213.074219 43.644531 213.558594 C 44.839844 214.046875 46.0625 214.449219 47.3125 214.773438 C 48.5625 215.097656 49.828125 215.335938 51.113281 215.488281 C 52.394531 215.644531 53.679688 215.710938 54.972656 215.691406 L 55.726562 215.691406 C 54.5625 215.679688 53.402344 215.589844 52.246094 215.421875 C 51.09375 215.257812 49.953125 215.015625 48.832031 214.699219 C 47.710938 214.386719 46.613281 213.996094 45.539062 213.539062 C 44.46875 213.082031 43.429688 212.554688 42.429688 211.960938 C 41.425781 211.367188 40.464844 210.707031 39.546875 209.988281 C 38.632812 209.269531 37.765625 208.492188 36.949219 207.660156 C 36.132812 206.824219 35.375 205.941406 34.675781 205.007812 C 33.976562 204.078125 33.339844 203.101562 32.765625 202.085938 C 31.453125 198.976562 30.792969 195.734375 30.785156 192.355469 C 30.746094 189.566406 31.175781 186.851562 32.066406 184.210938 C 32.957031 181.570312 34.261719 179.152344 35.980469 176.953125 C 36.949219 175.359375 38.109375 173.914062 39.453125 172.617188 C 40.796875 171.320312 42.285156 170.21875 43.917969 169.304688 C 45.546875 168.394531 47.269531 167.707031 49.078125 167.242188 C 50.886719 166.777344 52.726562 166.550781 54.59375 166.5625 L 57.050781 166.5625 C 58.234375 166.539062 59.417969 166.59375 60.597656 166.730469 C 61.777344 166.867188 62.941406 167.082031 64.089844 167.375 C 65.238281 167.667969 66.363281 168.039062 67.464844 168.484375 C 68.5625 168.925781 69.628906 169.441406 70.660156 170.03125 C 71.691406 170.617188 72.675781 171.273438 73.621094 171.992188 C 74.5625 172.714844 75.453125 173.496094 76.289062 174.335938 C 77.128906 175.175781 77.90625 176.066406 78.625 177.011719 C 79.339844 177.957031 79.992188 178.945312 80.578125 179.976562 C 81.949219 183.078125 82.640625 186.320312 82.65625 189.710938 C 82.691406 193.835938 81.777344 197.742188 79.914062 201.425781 C 81.128906 199.296875 82.050781 197.046875 82.675781 194.675781 C 83.296875 192.304688 83.605469 189.894531 83.601562 187.441406 Z M 83.601562 187.441406 "/><path style=" stroke:none;fill-rule:nonzero;fill:#ffffff;fill-opacity:1;" d="M 322.269531 178.277344 C 321.628906 177.160156 320.914062 176.085938 320.132812 175.0625 C 319.347656 174.039062 318.5 173.070312 317.585938 172.160156 C 316.671875 171.25 315.703125 170.40625 314.679688 169.625 C 313.652344 168.84375 312.578125 168.132812 311.457031 167.496094 C 310.335938 166.859375 309.175781 166.300781 307.980469 165.820312 C 306.785156 165.335938 305.5625 164.9375 304.3125 164.617188 C 303.0625 164.300781 301.796875 164.066406 300.519531 163.917969 C 299.238281 163.765625 297.953125 163.703125 296.664062 163.726562 C 280.695312 163.820312 267.941406 176.386719 268.035156 191.789062 C 268.0625 195.460938 268.785156 198.988281 270.207031 202.371094 C 267.933594 198.324219 266.800781 193.976562 266.804688 189.332031 C 266.710938 173.929688 279.464844 161.269531 295.433594 161.175781 C 296.839844 161.15625 298.242188 161.234375 299.636719 161.417969 C 301.03125 161.601562 302.402344 161.882812 303.757812 162.265625 C 305.109375 162.652344 306.429688 163.128906 307.710938 163.707031 C 308.996094 164.28125 310.230469 164.949219 311.414062 165.703125 C 312.601562 166.460938 313.726562 167.296875 314.789062 168.21875 C 315.855469 169.136719 316.84375 170.128906 317.765625 171.195312 C 318.683594 172.257812 319.519531 173.382812 320.273438 174.570312 C 321.03125 175.757812 321.695312 176.992188 322.269531 178.277344 Z M 322.269531 178.277344 "/><g clip-rule="nonzero" clip-path="url(#45f48544ff)"><path style=" stroke:none;fill-rule:nonzero;fill:#ffffff;fill-opacity:1;" d="M 324.535156 188.953125 C 324.542969 188.070312 324.507812 187.183594 324.421875 186.304688 C 324.335938 185.421875 324.207031 184.546875 324.027344 183.679688 C 323.851562 182.8125 323.628906 181.957031 323.359375 181.113281 C 323.09375 180.269531 322.78125 179.441406 322.425781 178.628906 C 322.070312 177.816406 321.675781 177.027344 321.234375 176.257812 C 320.796875 175.488281 320.320312 174.746094 319.800781 174.027344 C 319.285156 173.308594 318.730469 172.617188 318.140625 171.957031 C 317.550781 171.296875 316.925781 170.671875 316.269531 170.074219 C 315.613281 169.480469 314.925781 168.921875 314.210938 168.402344 C 313.496094 167.878906 312.753906 167.398438 311.988281 166.953125 C 311.222656 166.511719 310.433594 166.109375 309.625 165.75 C 308.816406 165.386719 307.988281 165.070312 307.148438 164.800781 C 306.304688 164.527344 305.449219 164.300781 304.582031 164.117188 C 303.714844 163.933594 302.84375 163.796875 301.960938 163.707031 C 301.082031 163.617188 300.199219 163.574219 299.3125 163.578125 C 298.425781 163.582031 297.542969 163.628906 296.664062 163.726562 L 292.503906 163.726562 L 291.5625 163.914062 L 291.464844 163.914062 L 290.425781 164.105469 L 289.480469 164.292969 L 288.441406 164.578125 L 287.496094 164.957031 L 286.835938 165.144531 L 286.554688 165.144531 L 285.609375 165.523438 L 285.515625 165.523438 L 284.570312 165.996094 L 284.472656 165.996094 L 283.625 166.46875 L 283.53125 166.46875 L 282.960938 166.75 L 281.167969 167.789062 L 279.5625 168.921875 C 278.457031 169.730469 277.417969 170.613281 276.441406 171.570312 L 275.875 172.136719 C 275.605469 172.308594 275.386719 172.527344 275.214844 172.796875 L 274.742188 173.269531 L 274.269531 173.835938 L 272.757812 175.820312 L 272.378906 176.480469 L 271.90625 177.238281 C 271.851562 177.289062 271.820312 177.351562 271.8125 177.425781 L 271.152344 178.5625 C 270.601562 179.566406 270.128906 180.605469 269.734375 181.679688 C 269.640625 181.867188 269.640625 182.152344 269.546875 182.339844 C 269.453125 182.53125 269.453125 182.625 269.355469 182.71875 L 269.355469 182.90625 C 269.261719 183 269.261719 183.191406 269.167969 183.285156 C 269.164062 183.523438 269.101562 183.742188 268.980469 183.945312 L 268.695312 185.175781 C 268.601562 185.363281 268.601562 185.554688 268.507812 185.742188 C 268.410156 185.929688 268.410156 186.214844 268.410156 186.402344 C 268.410156 186.59375 268.316406 186.875 268.316406 187.066406 C 268.316406 187.253906 268.222656 187.535156 268.222656 187.726562 C 268.222656 187.914062 268.128906 188.859375 268.035156 189.332031 L 268.035156 192.828125 C 268.039062 192.902344 268.070312 192.96875 268.128906 193.015625 L 268.128906 194.246094 C 268.128906 194.527344 268.222656 194.8125 268.222656 195.097656 C 268.300781 195.308594 268.332031 195.53125 268.316406 195.757812 C 268.394531 195.9375 268.425781 196.128906 268.410156 196.324219 L 268.695312 197.269531 C 268.695312 197.363281 268.789062 197.550781 268.789062 197.648438 C 268.882812 197.929688 268.882812 198.214844 268.980469 198.496094 C 269.074219 198.78125 269.546875 200.199219 269.921875 201.046875 C 270.300781 201.898438 270.019531 201.425781 270.113281 201.617188 C 270.730469 202.777344 271.421875 203.890625 272.191406 204.960938 C 272.957031 206.027344 273.792969 207.039062 274.699219 207.992188 C 275.601562 208.949219 276.566406 209.839844 277.59375 210.664062 C 278.617188 211.488281 279.691406 212.238281 280.820312 212.917969 C 281.945312 213.597656 283.113281 214.195312 284.320312 214.71875 C 285.527344 215.238281 286.765625 215.679688 288.03125 216.03125 C 289.296875 216.386719 290.582031 216.652344 291.886719 216.835938 C 293.1875 217.015625 294.496094 217.105469 295.8125 217.109375 L 296.566406 217.109375 C 295.40625 217.101562 294.253906 217.015625 293.101562 216.855469 C 291.953125 216.695312 290.816406 216.457031 289.699219 216.148438 C 288.582031 215.835938 287.488281 215.453125 286.417969 215 C 285.351562 214.546875 284.316406 214.023438 283.316406 213.433594 C 282.316406 212.839844 281.359375 212.1875 280.449219 211.472656 C 279.535156 210.753906 278.671875 209.980469 277.859375 209.152344 C 277.046875 208.320312 276.292969 207.441406 275.597656 206.511719 C 274.902344 205.582031 274.269531 204.613281 273.703125 203.597656 C 272.378906 200.492188 271.683594 197.246094 271.625 193.867188 C 271.617188 191.070312 272.058594 188.34375 272.949219 185.691406 C 273.835938 183.039062 275.128906 180.601562 276.820312 178.371094 C 277.820312 176.789062 278.996094 175.359375 280.355469 174.074219 C 281.714844 172.789062 283.210938 171.691406 284.847656 170.785156 C 286.480469 169.875 288.203125 169.183594 290.011719 168.710938 C 291.820312 168.234375 293.660156 167.992188 295.527344 167.980469 L 297.984375 167.980469 C 299.171875 167.964844 300.351562 168.027344 301.527344 168.167969 C 302.703125 168.3125 303.867188 168.53125 305.015625 168.824219 C 306.160156 169.121094 307.285156 169.492188 308.382812 169.9375 C 309.480469 170.382812 310.542969 170.902344 311.574219 171.488281 C 312.601562 172.074219 313.589844 172.726562 314.53125 173.445312 C 315.472656 174.164062 316.363281 174.941406 317.203125 175.777344 C 318.042969 176.613281 318.824219 177.503906 319.546875 178.445312 C 320.265625 179.382812 320.921875 180.367188 321.511719 181.394531 C 322.894531 184.523438 323.585938 187.800781 323.589844 191.222656 C 323.582031 195.324219 322.640625 199.199219 320.757812 202.84375 C 322.007812 200.742188 322.953125 198.515625 323.59375 196.15625 C 324.238281 193.800781 324.550781 191.398438 324.535156 188.953125 Z M 324.535156 188.953125 "/></g><path style=" stroke:none;fill-rule:nonzero;fill:#f5c612;fill-opacity:1;" d="M 135.1875 177.523438 C 125.160156 168.71875 114.199219 161.285156 102.308594 155.222656 C 93.617188 150.78125 83.976562 145.964844 70.277344 144.074219 C 64.722656 143.28125 59.148438 143.089844 53.554688 143.507812 C 45.578125 144.136719 37.921875 146.054688 30.59375 149.269531 C 27.015625 150.953125 23.613281 152.9375 20.390625 155.222656 L 20.011719 156.640625 C 22.515625 154.828125 25.160156 153.253906 27.949219 151.917969 C 37.871094 147.003906 46.941406 146.246094 53.175781 145.679688 C 59.300781 145.210938 65.414062 145.371094 71.507812 146.152344 C 79.347656 147.382812 86.433594 149.742188 101.550781 157.679688 C 113.109375 163.710938 124.320312 170.324219 135.1875 177.523438 Z M 135.1875 177.523438 "/><path style=" stroke:none;fill-rule:nonzero;fill:#f5c612;fill-opacity:1;" d="M 92.574219 186.308594 C 92.972656 184.003906 92.941406 181.703125 92.480469 179.410156 C 92.113281 177.085938 91.328125 174.914062 90.121094 172.890625 C 98.339844 175.816406 106.75 178.019531 115.347656 179.503906 C 121.605469 180.542969 127.902344 181.175781 134.242188 181.394531 Z M 92.574219 186.308594 "/><g clip-rule="nonzero" clip-path="url(#b577672053)"><path style=" stroke:none;fill-rule:nonzero;fill:#ffffff;fill-opacity:1;" d="M 26.910156 122.152344 C 44.390625 56.960938 107.789062 8.488281 183.1875 8.488281 C 268.410156 8.488281 338.425781 70.46875 343.90625 148.609375 C 341.164062 146.8125 338.234375 145.113281 335.117188 143.414062 C 326.992188 72.078125 261.988281 16.238281 183.1875 16.238281 C 112.230469 16.238281 52.324219 61.589844 35.320312 122.910156 L 26.34375 124.421875 C 26.367188 124.097656 26.433594 123.785156 26.53125 123.476562 Z M 26.910156 122.152344 "/></g><path style=" stroke:none;fill-rule:nonzero;fill:#f5c612;fill-opacity:1;" d="M 190.367188 26.914062 L 197.265625 40.519531 L 212.761719 42.691406 L 201.515625 53.273438 L 204.164062 68.203125 L 190.367188 61.117188 L 176.476562 68.203125 L 179.125 53.273438 L 167.878906 42.691406 L 183.375 40.519531 Z M 190.367188 26.914062 "/><path style=" stroke:none;fill-rule:nonzero;fill:#f5c612;fill-opacity:1;" d="M 125.929688 44.960938 L 131.597656 56.015625 L 144.164062 57.808594 L 135.09375 66.40625 L 137.171875 78.597656 L 125.929688 72.832031 L 114.683594 78.597656 L 116.859375 66.40625 L 107.695312 57.808594 L 120.261719 56.015625 Z M 125.929688 44.960938 "/><path style=" stroke:none;fill-rule:nonzero;fill:#f5c612;fill-opacity:1;" d="M 83.601562 78.597656 L 88.230469 87.476562 L 98.339844 88.988281 L 90.96875 95.886719 L 92.765625 105.714844 L 83.601562 101.082031 L 74.53125 105.714844 L 76.230469 95.886719 L 68.859375 88.988281 L 79.066406 87.476562 Z M 83.601562 78.597656 "/><path style=" stroke:none;fill-rule:nonzero;fill:#f5c612;fill-opacity:1;" d="M 282.773438 78.597656 L 287.402344 87.476562 L 297.609375 88.988281 L 290.144531 95.886719 L 291.9375 105.714844 L 282.773438 101.082031 L 273.703125 105.714844 L 275.402344 95.886719 L 268.035156 88.988281 L 278.238281 87.476562 Z M 282.773438 78.597656 "/><path style=" stroke:none;fill-rule:nonzero;fill:#f5c612;fill-opacity:1;" d="M 243.941406 44.960938 L 249.515625 56.015625 L 262.175781 57.808594 L 253.011719 66.40625 L 255.183594 78.597656 L 243.941406 72.832031 L 232.601562 78.597656 L 234.777344 66.40625 L 225.609375 57.808594 L 238.269531 56.015625 Z M 243.941406 44.960938 "/><g style="fill:#f7cb1d;fill-opacity:1;"><g transform="translate(60.745112, 268.230496)"><path style="stroke:none" d="M 35.578125 -28.78125 C 37.515625 -28.28125 39.203125 -27.445312 40.640625 -26.28125 C 42.078125 -25.125 43.191406 -23.695312 43.984375 -22 C 44.785156 -20.300781 45.1875 -18.378906 45.1875 -16.234375 C 45.1875 -13.816406 44.726562 -11.617188 43.8125 -9.640625 C 42.90625 -7.660156 41.597656 -5.953125 39.890625 -4.515625 C 38.179688 -3.078125 36.128906 -1.960938 33.734375 -1.171875 C 31.335938 -0.390625 28.660156 0 25.703125 0 L 2.625 0 L 2.625 -52.1875 L 22.53125 -52.1875 C 25.507812 -52.1875 28.179688 -51.835938 30.546875 -51.140625 C 32.921875 -50.453125 34.953125 -49.46875 36.640625 -48.1875 C 38.328125 -46.914062 39.613281 -45.394531 40.5 -43.625 C 41.394531 -41.863281 41.84375 -39.921875 41.84375 -37.796875 C 41.84375 -36.316406 41.5625 -34.984375 41 -33.796875 C 40.4375 -32.617188 39.679688 -31.609375 38.734375 -30.765625 C 37.796875 -29.921875 36.742188 -29.257812 35.578125 -28.78125 Z M 19 -38.6875 L 19 -31.828125 L 22.28125 -31.828125 C 23.488281 -31.828125 24.382812 -32.179688 24.96875 -32.890625 C 25.550781 -33.609375 25.84375 -34.414062 25.84375 -35.3125 C 25.84375 -36.21875 25.515625 -37.003906 24.859375 -37.671875 C 24.210938 -38.347656 23.054688 -38.6875 21.390625 -38.6875 Z M 23.796875 -13.734375 C 25.335938 -13.734375 26.472656 -14.113281 27.203125 -14.875 C 27.929688 -15.644531 28.296875 -16.566406 28.296875 -17.640625 C 28.296875 -18.640625 27.953125 -19.492188 27.265625 -20.203125 C 26.585938 -20.910156 25.613281 -21.265625 24.34375 -21.265625 L 19 -21.265625 L 19 -13.734375 Z M 23.796875 -13.734375 "/></g></g><g style="fill:#f7cb1d;fill-opacity:1;"><g transform="translate(106.611689, 268.230496)"><path style="stroke:none" d="M 63.203125 -52.1875 L 68.90625 0 L 51.953125 0 L 49.765625 -23.375 L 49.28125 -23.375 L 40.53125 0 L 30.046875 0 L 20.546875 -23.375 L 20.0625 -23.375 L 18.25 0 L 1.328125 0 L 6.96875 -52.1875 L 24.03125 -52.1875 L 34.890625 -22.28125 L 35.28125 -22.28125 L 46.140625 -52.1875 Z M 63.203125 -52.1875 "/></g></g><g style="fill:#ffffff;fill-opacity:1;"><g transform="translate(175.413073, 268.230496)"><path style="stroke:none" d="M 28.4375 1.375 C 25.40625 1.375 22.507812 0.921875 19.75 0.015625 C 17 -0.878906 14.476562 -2.15625 12.1875 -3.8125 C 9.894531 -5.46875 7.910156 -7.429688 6.234375 -9.703125 C 4.554688 -11.984375 3.253906 -14.515625 2.328125 -17.296875 C 1.410156 -20.078125 0.953125 -23.039062 0.953125 -26.1875 C 0.953125 -29.300781 1.421875 -32.242188 2.359375 -35.015625 C 3.296875 -37.785156 4.613281 -40.304688 6.3125 -42.578125 C 8.007812 -44.859375 10.03125 -46.816406 12.375 -48.453125 C 14.71875 -50.097656 17.304688 -51.363281 20.140625 -52.25 C 22.984375 -53.144531 25.988281 -53.59375 29.15625 -53.59375 C 31.25 -53.59375 33.222656 -53.351562 35.078125 -52.875 C 36.941406 -52.394531 38.703125 -51.757812 40.359375 -50.96875 L 40.40625 -34.796875 C 39.601562 -35.367188 38.660156 -35.921875 37.578125 -36.453125 C 36.492188 -36.984375 35.28125 -37.421875 33.9375 -37.765625 C 32.59375 -38.109375 31.125 -38.28125 29.53125 -38.28125 C 27.84375 -38.28125 26.28125 -37.976562 24.84375 -37.375 C 23.414062 -36.769531 22.164062 -35.921875 21.09375 -34.828125 C 20.019531 -33.734375 19.1875 -32.445312 18.59375 -30.96875 C 18 -29.488281 17.703125 -27.878906 17.703125 -26.140625 C 17.703125 -24.390625 18 -22.765625 18.59375 -21.265625 C 19.1875 -19.773438 20.019531 -18.484375 21.09375 -17.390625 C 22.164062 -16.296875 23.421875 -15.445312 24.859375 -14.84375 C 26.304688 -14.25 27.882812 -13.953125 29.59375 -13.953125 C 31.195312 -13.953125 32.726562 -14.15625 34.1875 -14.5625 C 35.644531 -14.96875 36.992188 -15.519531 38.234375 -16.21875 C 39.472656 -16.914062 40.535156 -17.707031 41.421875 -18.59375 L 41.046875 -1.609375 C 39.179688 -0.691406 37.222656 0.03125 35.171875 0.5625 C 33.117188 1.101562 30.875 1.375 28.4375 1.375 Z M 28.4375 1.375 "/></g></g><g style="fill:#ffffff;fill-opacity:1;"><g transform="translate(217.759345, 268.230496)"><path style="stroke:none" d="M 36.84375 0 L 34.65625 -8.09375 L 19.921875 -8.09375 L 17.734375 0 L 0.171875 0 L 17.9375 -52.1875 L 37.390625 -52.1875 L 55.171875 0 Z M 23.65625 -21.84375 L 30.9375 -21.84375 L 27.515625 -34.390625 L 27.078125 -34.390625 Z M 23.65625 -21.84375 "/></g></g><g style="fill:#ffffff;fill-opacity:1;"><g transform="translate(273.093173, 268.230496)"><path style="stroke:none" d="M 46.484375 0 L 28.609375 0 L 19.890625 -16.8125 L 19.421875 -16.8125 L 19.421875 0 L 2.625 0 L 2.625 -52.1875 L 23.453125 -52.1875 C 26.410156 -52.1875 29.097656 -51.742188 31.515625 -50.859375 C 33.929688 -49.972656 36.007812 -48.703125 37.75 -47.046875 C 39.488281 -45.398438 40.832031 -43.429688 41.78125 -41.140625 C 42.726562 -38.847656 43.203125 -36.300781 43.203125 -33.5 C 43.203125 -30.164062 42.507812 -27.320312 41.125 -24.96875 C 39.75 -22.613281 37.832031 -20.765625 35.375 -19.421875 Z M 19.421875 -38.015625 L 19.421875 -29.875 L 22.9375 -29.875 C 24.207031 -29.875 25.238281 -30.238281 26.03125 -30.96875 C 26.832031 -31.695312 27.234375 -32.6875 27.234375 -33.9375 C 27.234375 -35.21875 26.84375 -36.21875 26.0625 -36.9375 C 25.28125 -37.65625 24.257812 -38.015625 23 -38.015625 Z M 19.421875 -38.015625 "/></g></g></g></svg>