<svg xmlns="http://www.w3.org/2000/svg" xmlns:xlink="http://www.w3.org/1999/xlink" width="500" zoomAndPan="magnify" viewBox="0 0 375 374.999991" height="500" preserveAspectRatio="xMidYMid meet" version="1.2"><defs/><g id="42a79bfcf3"><g style="fill:#f7cb1d;fill-opacity:1;"><g transform="translate(81.606586, 211.751662)"><path style="stroke:none" d="M 69.25 -56.015625 C 73.019531 -55.035156 76.300781 -53.414062 79.09375 -51.15625 C 81.894531 -48.894531 84.070312 -46.113281 85.625 -42.8125 C 87.175781 -39.507812 87.953125 -35.769531 87.953125 -31.59375 C 87.953125 -26.894531 87.0625 -22.613281 85.28125 -18.75 C 83.507812 -14.894531 80.960938 -11.570312 77.640625 -8.78125 C 74.316406 -5.988281 70.320312 -3.828125 65.65625 -2.296875 C 61 -0.765625 55.789062 0 50.03125 0 L 5.125 0 L 5.125 -101.59375 L 43.84375 -101.59375 C 49.65625 -101.59375 54.863281 -100.914062 59.46875 -99.5625 C 64.082031 -98.207031 68.03125 -96.285156 71.3125 -93.796875 C 74.59375 -91.316406 77.097656 -88.359375 78.828125 -84.921875 C 80.566406 -81.484375 81.4375 -77.703125 81.4375 -73.578125 C 81.4375 -70.691406 80.890625 -68.097656 79.796875 -65.796875 C 78.710938 -63.492188 77.25 -61.519531 75.40625 -59.875 C 73.570312 -58.226562 71.519531 -56.941406 69.25 -56.015625 Z M 36.984375 -75.3125 L 36.984375 -61.9375 L 43.375 -61.9375 C 45.726562 -61.9375 47.46875 -62.632812 48.59375 -64.03125 C 49.726562 -65.425781 50.296875 -66.988281 50.296875 -68.71875 C 50.296875 -70.5 49.660156 -72.039062 48.390625 -73.34375 C 47.128906 -74.65625 44.878906 -75.3125 41.640625 -75.3125 Z M 46.296875 -26.75 C 49.316406 -26.75 51.535156 -27.488281 52.953125 -28.96875 C 54.367188 -30.457031 55.078125 -32.242188 55.078125 -34.328125 C 55.078125 -36.273438 54.410156 -37.9375 53.078125 -39.3125 C 51.753906 -40.6875 49.851562 -41.375 47.375 -41.375 L 36.984375 -41.375 L 36.984375 -26.75 Z M 46.296875 -26.75 "/></g></g><g style="fill:#f7cb1d;fill-opacity:1;"><g transform="translate(170.882466, 211.751662)"><path style="stroke:none" d="M 123.015625 -101.59375 L 134.125 0 L 101.125 0 L 96.859375 -45.5 L 95.9375 -45.5 L 78.90625 0 L 58.484375 0 L 39.984375 -45.5 L 39.046875 -45.5 L 35.53125 0 L 2.59375 0 L 13.578125 -101.59375 L 46.765625 -101.59375 L 67.921875 -43.375 L 68.65625 -43.375 L 89.8125 -101.59375 Z M 123.015625 -101.59375 "/></g></g></g></svg>